<svg xmlns="http://www.w3.org/2000/svg" viewBox="0 0 1252 747.42"><defs><style>.cls-1{fill:#54c23e;}.cls-2{fill:#1f860b;}.cls-3{fill:#666;}.cls-4{fill:#ccc;}.cls-5,.cls-6{fill:none;}.cls-5,.cls-7{stroke:#666;}.cls-5,.cls-6,.cls-7{stroke-miterlimit:10;}.cls-6{stroke:#666683;}.cls-7{fill:#7a006d;}.cls-8{fill:#d8d8db;}.cls-9{fill:#130eb2;}</style></defs><g id="Layer_2" data-name="Layer 2"><g id="Layer_2-2" data-name="Layer 2"><path class="cls-1" d="M1197,118.77c4.3-.48,25.57-3.61,42.5,8.5a47.23,47.23,0,0,1,12.5,13.5v601l-13,5c-175.52-16.49-313.58-19.76-409.5-19.5-49.84.14-82.15,1.22-171,1-189.29-.45-183.23-5.66-280-3C326,726.72,253,731.4,107,740.77c-38,2.44-69.4,4.55-90.72,6a12.78,12.78,0,0,1-10.28-1c-6-3.54-6-10.7-6-11q2-295,4-590l3-15c9-3.67,22.46-9,39-15,157-56.54,264.13-49.52,577-41C814.85,79,1006.28,140.25,1197,118.77Z"/></g><g id="Layer_5" data-name="Layer 5"><polygon class="cls-2" points="527.5 667.27 527.5 729.27 549.5 745.27 704.28 745.27 725.5 727.27 725.5 660.83 527.5 667.27"/></g><g id="Layer_10" data-name="Layer 10"><path class="cls-3" d="M26.5,664.54c-.07.58-.92,9.22-1,20.73-.06,9.33.41,17.47,1,24.07a1637.59,1637.59,0,0,1,600.63,10.2A1461.23,1461.23,0,0,1,1228.5,710a134,134,0,0,0-21-47.74c-74.18-104.49-268.69-33.16-576-21C431.77,649.18,29.7,638.21,26.5,664.54Z"/></g><g id="Layer_4" data-name="Layer 4"><path class="cls-4" d="M85.5,56.27l-60,88V702.61a1636.94,1636.94,0,0,1,600.63,10.2,1461,1461,0,0,1,601.37-9.54V143.5l-60-87.23c-165.14,15.91-346.91,26.07-543,26C430,82.21,249.54,72.08,85.5,56.27Z"/></g><g id="Layer_7" data-name="Layer 7"><path class="cls-5" d="M111,624.77a894.24,894.24,0,0,1,98-14c150.75-13,279.9,14.7,374,46"/><path class="cls-5" d="M114,645.77c20.44-4.71,41.78-8.77,64-12,145.23-21.07,273.92,1.64,372,32"/><path class="cls-5" d="M89,672.77a1012.69,1012.69,0,0,1,473,15"/><path class="cls-6" d="M659,656.77a1095.77,1095.77,0,0,1,473-33"/><path class="cls-5" d="M695,664.77a857.82,857.82,0,0,1,104-23c69.88-10.95,123.71-10.52,165-10a1211.88,1211.88,0,0,1,175,15"/><path class="cls-5" d="M696,680.77a1084.52,1084.52,0,0,1,468-6"/><line class="cls-5" x1="42" y1="152.77" x2="42" y2="607.48"/><line class="cls-5" x1="64.28" y1="607.48" x2="64.28" y2="168.39"/><line class="cls-7" x1="1190" y1="181.77" x2="1190" y2="603.94"/><line class="cls-5" x1="1211" y1="148.77" x2="1211" y2="581.72"/></g><g id="Layer_3" data-name="Layer 3"><path class="cls-8" d="M1170,55.77V610.16a871.71,871.71,0,0,0-539,42.61,937.42,937.42,0,0,0-547-44l.72-553c17-6.74,41-15.57,70.28-24C276.17-3.07,374.12,1.69,393,2.77c0,0,169.59,2.8,225,57,7.1,6.95,18.94,18.53,16,24s-20.4,4.1-22-1c-1.87-6,17.92-17,34-26,129.1-72.12,311-55,311-55A689.22,689.22,0,0,1,1170,55.77Z"/></g><g id="Layer_6" data-name="Layer 6"><path class="cls-9" d="M183.5,633.27V747.05l43-34.78,41.33,34.78q3.35-60.88,6.67-121.78c-18.88.5-38.94,1.74-60,4Q198.5,631,183.5,633.27Z"/></g><g id="Layer_8" data-name="Layer 8"><path class="cls-4" d="M626.5,84.27l-3,251,3,273.12,7-115.12q.94-81.48,0-166Q632,202.52,626.5,84.27Z"/></g></g></svg>